<?xml version="1.0" standalone="no"?>
<!DOCTYPE svg PUBLIC "-//W3C//DTD SVG 20010904//EN"
 "http://www.w3.org/TR/2001/REC-SVG-20010904/DTD/svg10.dtd">
<svg version="1.0" xmlns="http://www.w3.org/2000/svg"
 width="820.000000pt" height="835.000000pt" viewBox="0 0 820.000000 835.000000"
 preserveAspectRatio="xMidYMid meet">

<g transform="translate(0.000000,835.000000) scale(0.100000,-0.100000)"
fill="#000000" stroke="none">
<path d="M1210 7943 c-492 -35 -904 -354 -1055 -818 -57 -176 -55 -89 -55
-2232 0 -1349 3 -1996 11 -2049 61 -441 378 -818 804 -957 174 -57 171 -57
1251 -57 l994 0 0 -350 0 -350 -738 0 c-650 0 -745 -2 -793 -16 -212 -63 -349
-241 -349 -454 0 -213 146 -400 355 -456 74 -20 4856 -20 4930 0 209 56 355
243 355 456 0 213 -137 391 -349 454 -48 14 -143 16 -793 16 l-738 0 0 350 0
350 994 0 c1080 0 1077 0 1251 57 426 139 743 516 804 957 8 53 11 700 11
2049 0 2140 2 2057 -55 2230 -135 414 -461 704 -905 804 -69 16 -291 17 -2980
18 -1598 1 -2925 0 -2950 -2z m5870 -499 c243 -57 442 -249 517 -500 17 -56
18 -173 21 -2024 3 -2214 8 -2050 -74 -2218 -96 -196 -288 -343 -498 -381 -84
-15 -5808 -15 -5892 0 -210 38 -402 185 -498 381 -82 168 -77 4 -74 2218 3
1856 4 1968 21 2025 61 204 197 365 384 452 143 66 -98 61 3108 62 2585 1
2927 -1 2985 -15z"/>
<path d="M5102 6933 c-19 -9 -44 -32 -58 -52 -23 -34 -24 -42 -24 -207 l0
-171 -77 -28 c-43 -15 -99 -38 -125 -51 -26 -13 -53 -24 -60 -24 -8 0 -61 48
-118 106 -138 139 -192 164 -277 129 -46 -19 -287 -256 -314 -307 -24 -47 -24
-114 0 -153 10 -16 64 -75 119 -130 56 -55 102 -105 102 -111 0 -6 -18 -49
-39 -95 -21 -46 -47 -110 -57 -141 l-18 -58 -161 0 c-147 0 -165 -2 -205 -22
-30 -15 -53 -37 -67 -63 -21 -38 -23 -52 -23 -243 0 -229 5 -252 68 -300 35
-26 39 -27 211 -32 l175 -5 36 -95 c20 -52 46 -113 57 -135 l21 -40 -36 -37
c-19 -21 -33 -40 -30 -44 4 -3 59 -17 123 -30 158 -32 276 -69 360 -112 82
-43 181 -137 210 -200 22 -48 20 -48 116 -13 259 93 533 12 641 -191 l23 -43
3 41 3 41 87 33 c48 18 113 46 145 63 l58 30 122 -120 c134 -132 157 -144 239
-123 36 10 68 36 190 158 121 122 148 154 158 190 20 79 3 112 -132 248 l-120
122 28 53 c15 30 39 88 54 129 l28 75 175 5 c191 5 203 9 251 74 20 26 21 41
21 254 0 224 0 228 -24 261 -43 59 -84 71 -267 71 l-160 0 -13 48 c-7 26 -32
88 -55 137 l-43 90 122 125 c138 141 156 173 134 253 -9 34 -36 68 -147 180
-76 76 -154 147 -174 158 -86 44 -139 21 -290 -128 l-118 -117 -78 37 c-42 21
-102 46 -132 56 l-55 18 -5 169 c-6 190 -14 216 -77 259 -37 25 -39 25 -253
25 -179 0 -221 -3 -248 -17z m383 -1068 c205 -52 377 -230 420 -432 42 -199
-11 -380 -155 -523 -120 -121 -238 -170 -406 -170 -163 0 -287 51 -399 164
-107 108 -160 220 -172 367 -21 265 164 522 428 593 71 19 210 20 284 1z"/>
<path d="M1286 4791 c-104 -12 -96 49 -96 -723 l0 -669 25 -24 c24 -25 26 -25
215 -25 l192 0 29 29 29 29 0 657 c0 698 0 701 -47 720 -25 10 -276 15 -347 6z"/>
<path d="M2421 4709 c-92 -10 -229 -36 -393 -75 l-108 -26 0 -533 0 -534 48
-6 c109 -15 236 -67 647 -265 599 -289 717 -337 875 -355 64 -7 221 11 535 61
121 19 298 46 394 59 178 25 268 48 341 85 23 12 150 94 281 182 284 190 378
273 403 356 17 59 10 94 -24 112 -26 14 -25 23 5 68 51 74 24 161 -62 203 -39
20 -64 24 -133 24 -140 0 -235 -43 -405 -186 -151 -127 -320 -173 -680 -186
-193 -7 -306 5 -411 41 -74 26 -251 99 -259 108 -3 3 27 8 67 12 70 6 270 -2
633 -26 316 -21 315 -21 361 -3 112 42 203 219 164 319 -15 41 -80 106 -132
132 -117 59 -383 114 -680 139 -271 23 -281 26 -478 119 -303 144 -426 176
-710 181 -107 2 -233 -1 -279 -6z"/>
</g>
</svg>
